{"title":"I.Am.Wrath.2016.WEBRip.480p.x264.AAC-VYTO [P2PDL]","uid":14336293,"size":348620299,"categoryP":"video","categoryS":"movies","magnet":"?xt=urn:btih:086c55f77647951a83aaef049ce49c140ce70320&amp;dn=I.Am.Wrath.2016.WEBRip.480p.x264.AAC-VYTO+%5BP2PDL%5D&amp;tr=udp%3A%2F%2Ftracker.leechers-paradise.org%3A6969&amp;tr=udp%3A%2F%2Fzer0day.ch%3A1337&amp;tr=udp%3A%2F%2Fopen.demonii.com%3A1337&amp;tr=udp%3A%2F%2Ftracker.coppersurfer.tk%3A6969&amp;tr=udp%3A%2F%2Fexodus.desync.com%3A6969","seeders":3,"leechers":3,"uploader":"VYTOP2PDL","files":7,"time":1460714225,"description":"____    ____ ____    ____ .___________.  ______   \r\n     /   /      /   / |           | /  __    \r\n    /   /      /   /  `---|  |----`|  |  |  | \r\n        /     _    _/       |  |     |  |  |  | \r\n       /        |  |         |  |     |  `--'  | \r\n    __/         |__|         |__|      ______/  \r\n                                                  \r\nPresenting Small Encodes with quality for years!\r\n                                                                                                   \r\n                                                                                                   \r\n\r\n\r\nI.Am.Wrath.2016.WEBRip.480p.x264.AAC-VYTO\r\n\r\n\r\nGenre: Action, Crime, Drama \nhttp://www.imdb.com/title/tt3212232/\r\n\r\n\r\nFormat                                   : MPEG-4\r\nFile size                                : 326 MiB\r\nDuration                                 : 1h 30mn\r\nOverall bit rate                         : 502 Kbps\r\n\r\nVideo\r\nFormat                                   : AVC\r\nBit rate                                 : 459 Kbps\r\nWidth                                    : 720 pixels\r\nHeight                                   : 304 pixels\r\nDisplay aspect ratio                     : 2.35:1\r\nFrame rate mode                          : Constant\r\nFrame rate                               : 23.976 fps\r\nBit depth                                : 8 bits\r\nStream size                              : 298 MiB (91%)\r\nWriting library                          : x264\r\n\r\nAudio\r\nFormat                                   : AAC\r\nBit rate                                 : 40.0 Kbps\r\nChannel(s)                               : 2 channels\r\nChannel positions                        : Front: L R\r\nSampling rate                            : 48.0 KHz\r\nStream size                              : 26.0 MiB (8%)\r\nLanguage                                 : English\r\n\r\nSubtitle                                 : Yes (English)\r\n\r\nScreen Shots: (Click link to view)\r\n \nhttps://ititli.com/XtW \nhttps://ititli.com/Xtg \nhttps://ititli.com/Xtn \nhttps://ititli.com/Xtw \nhttps://ititli.com/Xt2 \nhttps://ititli.com/Xt6 \nhttps://ititli.com/Xt8 \nhttps://ititli.com/Xte \nhttps://ititli.com/Xtj\r\n\r\n----------------------------------------------------------------------------------------------------\r\n\r\n\r\nEncoder Notes: Looking For Early Access To Anything You Can Provide WEBDL, DVDScr, DVDR, BluRay,\r\nDirect Audio, Music Releases and Seedboxes. If You Got anything to offer please contact us.\r\n\r\nSupport us by donating BC - 1FgwdzPsd1y25Gea8wP1qni35uGCtmkRCD\r\n\r\nind us and join us!","torrent":{"xt":"urn:btih:086c55f77647951a83aaef049ce49c140ce70320","amp;dn":"I.Am.Wrath.2016.WEBRip.480p.x264.AAC-VYTO+%5BP2PDL%5D","amp;tr":["udp%3A%2F%2Ftracker.leechers-paradise.org%3A6969","udp%3A%2F%2Fzer0day.ch%3A1337","udp%3A%2F%2Fopen.demonii.com%3A1337","udp%3A%2F%2Ftracker.coppersurfer.tk%3A6969","udp%3A%2F%2Fexodus.desync.com%3A6969"],"infoHash":"086c55f77647951a83aaef049ce49c140ce70320","infoHashBuffer":{"type":"Buffer","data":[8,108,85,247,118,71,149,26,131,170,239,4,156,228,156,20,12,231,3,32]},"announce":[],"urlList":[]}}